# WaveFront *.obj file (generated by Autodesk ATF)

mtllib Wall.mtl

g Solide1

v 0.000000 0.000000 0.000000
v 0.000000 0.000000 80.000000
v 0.000000 3.303950 0.000000
v 0.000000 3.303950 80.000000
v 27.231283 0.000000 0.000000
v 27.231283 0.000000 80.000000
v 27.231283 3.303950 0.000000
v 27.231283 3.303950 80.000000
vt 0.000000 0.000000 0.000000
vt 0.330395 0.000000 0.000000
vt 0.330395 8.000000 0.000000
vt 0.000000 8.000000 0.000000
vt 0.000000 0.000000 0.000000
vt 2.723128 0.000000 0.000000
vt 2.723128 8.000000 0.000000
vt 0.000000 8.000000 0.000000
vt 0.000000 0.000000 0.000000
vt 0.330395 0.000000 0.000000
vt 0.330395 8.000000 0.000000
vt 0.000000 8.000000 0.000000
vt 0.000000 0.000000 0.000000
vt 2.723128 0.000000 0.000000
vt 2.723128 8.000000 0.000000
vt 0.000000 8.000000 0.000000
vt -1.361564 -0.165198 0.000000
vt 1.361564 -0.165198 0.000000
vt 1.361564 0.165198 0.000000
vt -1.361564 0.165198 0.000000
vt -1.361564 -0.165198 0.000000
vt 1.361564 -0.165198 0.000000
vt 1.361564 0.165198 0.000000
vt -1.361564 0.165198 0.000000
vn -0.100000 0.000000 0.000000
vn -0.100000 0.000000 0.000000
vn -0.100000 0.000000 0.000000
vn -0.100000 0.000000 0.000000
vn 0.000000 0.100000 0.000000
vn 0.000000 0.100000 0.000000
vn 0.000000 0.100000 0.000000
vn 0.000000 0.100000 0.000000
vn 0.100000 0.000000 0.000000
vn 0.100000 0.000000 0.000000
vn 0.100000 0.000000 0.000000
vn 0.100000 0.000000 0.000000
vn 0.000000 -0.100000 0.000000
vn 0.000000 -0.100000 0.000000
vn 0.000000 -0.100000 0.000000
vn 0.000000 -0.100000 0.000000
vn 0.000000 0.000000 0.100000
vn 0.000000 0.000000 0.100000
vn 0.000000 0.000000 0.100000
vn 0.000000 0.000000 0.100000
vn 0.000000 0.000000 -0.100000
vn 0.000000 0.000000 -0.100000
vn 0.000000 0.000000 -0.100000
vn 0.000000 0.000000 -0.100000
usemtl 191,191,191
f 3/1/1 1/2/2 4/4/4
f 4/4/4 1/2/2 2/3/3
f 7/5/5 3/6/6 8/8/8
f 8/8/8 3/6/6 4/7/7
f 5/9/9 7/10/10 6/12/12
f 6/12/12 7/10/10 8/11/11
f 1/13/13 5/14/14 2/16/16
f 2/16/16 5/14/14 6/15/15
f 2/17/17 6/18/18 4/20/20
f 4/20/20 6/18/18 8/19/19
f 5/21/21 1/22/22 7/24/24
f 7/24/24 1/22/22 3/23/23

# 8 vertices
# 24 texture params
# 24 normals
# 12 facets

# 1 groups
